<svg width="200" height="200" viewBox="0 0 200 200" fill="none" xmlns="http://www.w3.org/2000/svg">
<rect x="1.50538" y="1.50538" width="196.989" height="196.989" rx="98.4946" fill="url(#paint0_linear_23_32)"/>
<mask id="mask0_23_32" style="mask-type:alpha" maskUnits="userSpaceOnUse" x="37" y="47" width="126" height="106">
<path d="M160.718 92.7517C160.718 116.815 141.21 136.323 117.147 136.323C93.083 136.323 73.5756 116.815 73.5756 92.7517C73.5756 68.6881 93.083 49.1807 117.147 49.1807C141.21 49.1807 160.718 68.6881 160.718 92.7517Z" stroke="#3100F7" stroke-width="4.30108"/>
<ellipse cx="74.2563" cy="98.1651" rx="11.5375" ry="11.5375" fill="#3100F7"/>
<ellipse cx="96.0684" cy="134.221" rx="11.5375" ry="11.5375" fill="#3100F7"/>
<ellipse cx="71.424" cy="144.248" rx="7.21097" ry="7.21097" fill="#3100F7"/>
<ellipse cx="55.5055" cy="121.681" rx="7.21097" ry="7.21097" fill="#3100F7"/>
<ellipse cx="44.3427" cy="145.759" rx="7.21097" ry="7.21097" fill="#3100F7"/>
<ellipse cx="117.15" cy="92.7531" rx="18.343" ry="18.343" fill="#3100F7"/>
<path d="M56.1317 122.53C59.7969 133.176 63.4698 137.4 71.6317 144.53" stroke="url(#paint1_linear_23_32)" stroke-width="3.8"/>
</mask>
<g mask="url(#mask0_23_32)">
<path d="M6.29858 33.4273H208.898V162.908H6.29858V33.4273Z" fill="url(#paint2_linear_23_32)"/>
<path d="M107.829 93.5756V90.3028H126.229V93.5756H107.829ZM117.029 105.248C115.089 105.248 113.332 104.885 111.756 104.157C110.204 103.406 108.859 102.412 107.719 101.176C106.604 99.915 105.744 98.5089 105.138 96.9574C104.532 95.3816 104.229 93.7574 104.229 92.0847C104.229 90.3635 104.544 88.7271 105.174 87.1756C105.829 85.6241 106.726 84.2422 107.865 83.0301C109.029 81.7938 110.398 80.8241 111.974 80.121C113.55 79.418 115.271 79.0665 117.138 79.0665C119.053 79.0665 120.786 79.4422 122.338 80.1938C123.913 80.921 125.259 81.915 126.374 83.1756C127.489 84.4362 128.35 85.8544 128.956 87.4301C129.586 88.9816 129.901 90.5695 129.901 92.1938C129.901 93.915 129.574 95.5513 128.919 97.1028C128.289 98.6544 127.392 100.048 126.229 101.285C125.089 102.497 123.732 103.466 122.156 104.194C120.604 104.897 118.895 105.248 117.029 105.248ZM110.301 92.1574C110.301 93.1513 110.447 94.121 110.738 95.0665C111.029 95.9877 111.453 96.8119 112.01 97.5392C112.592 98.2665 113.307 98.8483 114.156 99.2847C115.004 99.721 115.974 99.9392 117.065 99.9392C118.204 99.9392 119.198 99.721 120.047 99.2847C120.895 98.8241 121.598 98.218 122.156 97.4665C122.713 96.715 123.126 95.8786 123.392 94.9574C123.683 94.0119 123.829 93.0544 123.829 92.0847C123.829 91.0907 123.683 90.1332 123.392 89.2119C123.101 88.2907 122.665 87.4665 122.083 86.7392C121.501 85.9877 120.786 85.4059 119.938 84.9938C119.089 84.5816 118.132 84.3756 117.065 84.3756C115.926 84.3756 114.932 84.5938 114.083 85.0301C113.259 85.4665 112.556 86.0604 111.974 86.8119C111.416 87.5392 110.992 88.3756 110.701 89.321C110.435 90.2422 110.301 91.1877 110.301 92.1574Z" fill="#262738"/>
</g>
<rect x="1.50538" y="1.50538" width="196.989" height="196.989" rx="98.4946" stroke="url(#paint3_linear_23_32)" stroke-width="3.01075"/>
<defs>
<linearGradient id="paint0_linear_23_32" x1="100" y1="0" x2="100" y2="200" gradientUnits="userSpaceOnUse">
<stop stop-color="#787AFF"/>
<stop offset="0.171875" stop-color="#323260"/>
<stop offset="0.640851" stop-color="#1E1E1E"/>
</linearGradient>
<linearGradient id="paint1_linear_23_32" x1="71.3175" y1="121.822" x2="46.9299" y2="130.927" gradientUnits="userSpaceOnUse">
<stop stop-color="#6164FF"/>
<stop offset="1" stop-color="#484BFF"/>
</linearGradient>
<linearGradient id="paint2_linear_23_32" x1="107.598" y1="33.4273" x2="107.598" y2="162.908" gradientUnits="userSpaceOnUse">
<stop offset="0.15625" stop-color="#8078D6"/>
<stop offset="0.427083" stop-color="white"/>
<stop offset="0.973958" stop-color="#3725FF"/>
</linearGradient>
<linearGradient id="paint3_linear_23_32" x1="100" y1="0" x2="100" y2="200" gradientUnits="userSpaceOnUse">
<stop stop-color="#2E2E48"/>
<stop offset="1" stop-color="#3033D8"/>
</linearGradient>
</defs>
</svg>
